<?xml version="1.0" encoding="UTF-8"?>
<svg version="1.1" xmlns="http://www.w3.org/2000/svg" width="500" height="500">
<path d="M0 0 C5.94 0 11.88 0 18 0 C17.9175 2.083125 17.835 4.16625 17.75 6.3125 C17.57075663 19.82052102 21.56953334 32.87724535 25.27294922 45.75268555 C26.89835143 51.44542377 28.13501357 57.13874869 29 63 C29.66 63 30.32 63 31 63 C31.12632812 61.85015625 31.25265625 60.7003125 31.3828125 59.515625 C31.92650661 55.17751834 32.83597186 50.99294354 33.875 46.75 C34.14062744 45.64192993 34.14062744 45.64192993 34.41162109 44.51147461 C35.45240723 40.18737892 36.53187117 35.87366624 37.625 31.5625 C38.08646637 29.7091106 38.5450511 27.85499999 39 26 C39.1959375 25.20980469 39.391875 24.41960937 39.59375 23.60546875 C41.35411541 15.80031916 41.59457883 7.97328293 42 0 C47.61 0 53.22 0 59 0 C59.00386719 1.75570312 59.00386719 1.75570312 59.0078125 3.546875 C59.2230761 16.01723203 60.75128354 28.09935329 62.8125 40.375 C62.93715637 41.12873901 63.06181274 41.88247803 63.19024658 42.65905762 C65.88670861 60.85789494 65.88670861 60.85789494 72 78 C72 78.99 72 79.98 72 81 C65.07 81 58.14 81 51 81 C51.0825 78.586875 51.165 76.17375 51.25 73.6875 C51.41260837 61.96967339 49.36289603 50.54753661 47.47851562 39.01855469 C46.6984214 34.09759298 46.09060923 29.15707632 45.4921875 24.2109375 C45.32976562 23.48132813 45.16734375 22.75171875 45 22 C44.34 21.67 43.68 21.34 43 21 C42.96132812 21.82177734 42.96132812 21.82177734 42.921875 22.66015625 C42.39409524 30.03707793 40.54998199 36.85463374 38.56152344 43.95751953 C37.59328296 47.47938902 36.70085637 51.01978258 35.8125 54.5625 C35.64580811 55.21686035 35.47911621 55.8712207 35.30737305 56.54541016 C33.74972909 62.75838547 32.87206215 68.46209073 32.9375 74.875 C32.958125 76.89625 32.97875 78.9175 33 81 C27.06 81 21.12 81 15 81 C15.103125 79.123125 15.20625 77.24625 15.3125 75.3125 C15.3033179 66.15794397 13.08917577 57.78297039 10.77490234 48.97216797 C9.64731635 44.64726819 8.57794374 40.30830637 7.50244141 35.97021484 C6.34572216 31.31076397 5.17367772 26.65520336 4 22 C2.29381377 23.70618623 2.4438628 26.03156053 2.09765625 28.36328125 C1.84532227 30.03680664 1.84532227 30.03680664 1.58789062 31.74414062 C1.41451172 32.92169922 1.24113281 34.09925781 1.0625 35.3125 C0.72081294 37.60037418 0.37836838 39.88813536 0.03515625 42.17578125 C-0.13371094 43.3157959 -0.30257812 44.45581055 -0.4765625 45.63037109 C-0.97300917 48.82624653 -1.54248774 52.00177362 -2.12109375 55.18359375 C-3.05971501 60.74758577 -3.23558532 66.11865528 -3.125 71.75 C-3.11146484 73.09964844 -3.11146484 73.09964844 -3.09765625 74.4765625 C-3.07452221 76.65116226 -3.03867472 78.82562111 -3 81 C-6.3 81 -9.6 81 -13 81 C-12.38125 79.2365625 -12.38125 79.2365625 -11.75 77.4375 C-7.79718139 65.49318901 -5.20772983 53.53290402 -3.3125 41.125 C-3.09898466 39.77593429 -2.8847931 38.42697542 -2.66992188 37.078125 C-1.13539046 27.29972292 0.17440526 17.83962976 0.0625 7.9375 C0.041875 5.318125 0.02125 2.69875 0 0 Z " fill="#A15082" transform="translate(132,185)"/>
<path d="M0 0 C8.10222074 6.48177659 10.83882308 14.74533064 12.625 24.625 C13.04032367 26.75651839 13.45568808 28.88802884 13.87109375 31.01953125 C14.16089111 32.55601318 14.16089111 32.55601318 14.45654297 34.12353516 C15.16281043 37.86173967 15.91298349 41.58781509 16.6875 45.3125 C16.89761719 46.36050781 17.10773438 47.40851563 17.32421875 48.48828125 C17.91566125 51.21958958 17.91566125 51.21958958 20 54 C22.45741537 54.50014953 22.45741537 54.50014953 25 54 C26.81476003 52.60414215 26.81476003 52.60414215 28 51 C27.73991338 54.72790821 27.15299098 56.78007546 25 59.875 C21.45249482 62.38781617 19.40839466 62.74526368 15.14453125 62.4765625 C11.5314196 61.6736488 10.14391305 59.94022361 8 57 C6.53197563 54.38749611 5.21623346 51.73822393 4 49 C3.46375 49.886875 2.9275 50.77375 2.375 51.6875 C-1.20358868 57.01758103 -5.65208364 60.70690593 -12 62 C-20.74825539 62.6919524 -27.19356612 61.94940261 -34.75 57.3125 C-38.89591133 53.05142447 -41.20002135 48.48922885 -41.5 42.5 C-41.18322443 36.74854356 -39.34325347 32.2485262 -35.1640625 28.23828125 C-29.15999839 23.48793934 -23.48213777 21.43003921 -15.80859375 21.53515625 C-10.52565893 22.40952238 -3.85353004 25.14646996 0 29 C-0.73899218 20.13209387 -1.72720535 10.42049393 -7 3 C-11.78349717 0.33228043 -15.55500972 -0.50416577 -21 0 C-24.29106674 1.00857837 -24.29106674 1.00857837 -27 3 C-27.07205511 4.68608966 -27.08386068 6.37500659 -27.0625 8.0625 C-27.04896484 9.44115234 -27.04896484 9.44115234 -27.03515625 10.84765625 C-27.02355469 11.55792969 -27.01195312 12.26820313 -27 13 C-20.93949386 14.0812391 -20.93949386 14.0812391 -15 13 C-14.67 11.35 -14.34 9.7 -14 8 C-13.34 8 -12.68 8 -12 8 C-11.64328067 11.83473284 -11.70228584 13.55342875 -13.875 16.8125 C-16.7055484 19.72629982 -18.29823827 20.18480702 -22.25 20.3125 C-26.87874943 20.26032408 -29.46360649 19.10512601 -33 16 C-35.34965355 12.79592697 -35.54561533 9.89725235 -35 6 C-27.49324507 -6.51125822 -11.62189229 -6.32978062 0 0 Z " fill="#A35284" transform="translate(366,205)"/>
<path d="M0 0 C0 11.22 0 22.44 0 34 C0.66 34 1.32 34 2 34 C2.185625 33.29875 2.37125 32.5975 2.5625 31.875 C5.03265549 26.93468902 9.80394024 22.93842644 15 21 C17.65177643 20.78115028 20.16358523 20.67527048 22.8125 20.6875 C23.84213867 20.66333008 23.84213867 20.66333008 24.89257812 20.63867188 C32.03515797 20.63191447 37.80396707 22.94440039 43 28 C47.10574496 33.79227992 48.08556443 39.04746321 48.24609375 46.015625 C48.27775635 47.17739258 48.30941895 48.33916016 48.34204102 49.53613281 C48.37354248 50.76170898 48.40504395 51.98728516 48.4375 53.25 C48.75750579 63.96293696 49.52598399 74.3870847 51 85 C45.06 85 39.12 85 33 85 C33.32355469 83.71351563 33.64710938 82.42703125 33.98046875 81.1015625 C35.3909712 74.02036628 35.33593285 66.91964584 35.31567383 59.73144531 C35.31249675 57.37258358 35.33610522 55.01495909 35.36132812 52.65625 C35.3636003 51.13281406 35.364305 49.6093748 35.36328125 48.0859375 C35.372491 47.39301605 35.38170074 46.7000946 35.39118958 45.98617554 C35.34158804 40.66794436 34.1265465 36.79874351 32 32 C27.3498674 27.49518404 22.10948175 27.65930235 15.94921875 27.71875 C10.72631363 28.21682837 8.17946991 30.72224093 4.75 34.4375 C1.78972647 38.77218625 0.7467425 42.34313877 0.734375 47.578125 C0.73050781 48.64949707 0.72664063 49.72086914 0.72265625 50.82470703 C0.73619141 52.52022705 0.73619141 52.52022705 0.75 54.25 C0.75386719 55.40483887 0.75773437 56.55967773 0.76171875 57.74951172 C0.85429443 66.98779347 1.67087454 75.86226245 3 85 C-2.94 85 -8.88 85 -15 85 C-14.67547852 83.82131348 -14.35095703 82.64262695 -14.01660156 81.42822266 C-12.53572096 74.72050296 -12.71144184 67.98401281 -12.734375 61.1484375 C-12.73302474 59.72075332 -12.73108122 58.29306959 -12.72857666 56.86538696 C-12.72564424 53.88840309 -12.7298632 50.91154004 -12.73925781 47.93457031 C-12.75067217 44.13410048 -12.7440685 40.33391259 -12.73211288 36.53345299 C-12.72486091 33.5907888 -12.72719713 30.6481907 -12.73236847 27.70552444 C-12.73369467 26.30460196 -12.73209368 24.90367331 -12.72740936 23.50275803 C-12.72228685 21.54139076 -12.73148829 19.5800022 -12.74121094 17.61865234 C-12.74280212 16.50662445 -12.74439331 15.39459656 -12.74603271 14.24887085 C-13.03449992 10.55866051 -13.87823188 7.5190699 -15 4 C-14.22914063 3.79503906 -13.45828125 3.59007812 -12.6640625 3.37890625 C-11.66117187 3.10949219 -10.65828125 2.84007812 -9.625 2.5625 C-8.62726563 2.29566406 -7.62953125 2.02882812 -6.6015625 1.75390625 C-0.5492228 0 -0.5492228 0 0 0 Z " fill="#A14F82" transform="translate(408,181)"/>
<path d="M0 0 C6.6 0 13.2 0 20 0 C20.29197266 2.86751953 20.29197266 2.86751953 20.58984375 5.79296875 C21.96426163 15.40662829 25.24910243 24.22171453 28.5625 33.3125 C29.17237101 35.02237777 29.78110258 36.73266239 30.38867188 38.44335938 C32.40538497 45.72627012 32.40538497 45.72627012 36 52 C37.65508992 47.3230387 39.30910031 42.64569748 40.9621582 37.96801758 C41.52339285 36.38035036 42.08491042 34.79278312 42.64672852 33.20532227 C44.21985794 28.76000809 45.78851718 24.31318358 47.34732056 19.86282349 C47.90706283 18.26525357 48.46927697 16.6685501 49.03198242 15.07202148 C50.3120305 11.36122946 51.3762019 7.85985604 51.6875 3.9375 C51.790625 2.638125 51.89375 1.33875 52 0 C55.3 0 58.6 0 62 0 C60.48803013 3.02393974 58.91158858 5.93595353 57.25 8.875 C48.96392044 24.14548946 43.60919308 40.78184404 37.73803711 57.07958984 C36.56878483 60.32057438 35.39216499 63.55881448 34.21484375 66.796875 C33.86574448 67.77315857 33.5166452 68.74944214 33.15696716 69.75531006 C25.73370641 90.13314679 25.73370641 90.13314679 16 95 C10.77159666 95.52113171 6.35963246 95.64273534 1.5625 93.375 C-2.40451438 89.69825497 -5.18315247 86.53427028 -5.5 81 C-5.26579156 76.7761719 -3.77266445 74.22228572 -1 71 C1.97106942 68.59102479 3.6745346 68.03487129 7.5 67.625 C12.19143151 68.12765338 14.70999219 69.70999219 18 73 C18.26991906 75.68839385 18.08737357 78.29141936 18 81 C17.34 81 16.68 81 16 81 C15.67 79.02 15.34 77.04 15 75 C10.9899066 74.82135369 10.9899066 74.82135369 7 75 C4.60713116 77.39286884 4.67949384 78.09447094 4.625 81.375 C4.71170488 84.5422782 4.87802993 85.79996909 6.5625 88.5625 C9.9425626 90.55587025 12.13289096 90.47490813 16 90 C21.47425376 87.78423062 24.55124991 83.40447469 26.80371094 78.11132812 C28.65503656 73.44984003 30.34602617 68.73457112 32 64 C29.69 63.67 27.38 63.34 25 63 C22.53381482 57.12446594 20.33149107 51.17538028 18.265625 45.1484375 C18.02179077 44.44076233 17.77795654 43.73308716 17.5267334 43.00396729 C16.515071 40.06611345 15.50413483 37.12817237 14.51074219 34.18408203 C11.21726008 24.44540811 7.39554903 15.29615761 2.62792969 6.18212891 C1 3 1 3 0 0 Z " fill="#A15082" transform="translate(204,203)"/>
<path d="M0 0 C0 3.3 0 6.6 0 10 C-3.30921276 8.89692908 -3.71023629 8.31045272 -5.6875 5.625 C-9.79029754 0.73976185 -13.70254019 -0.65289897 -19.96875 -1.3125 C-26.30098173 -1.56328145 -30.21673686 -1.26615361 -35 3 C-36.36997745 4.15745487 -36.36997745 4.15745487 -36.3125 7.3125 C-36.33688961 10.93569295 -36.33688961 10.93569295 -34.4453125 13.046875 C-31.39511156 15.48313774 -28.20708728 16.68498419 -24.5625 17.9375 C-23.13011308 18.45416309 -21.69782282 18.97109422 -20.265625 19.48828125 C-18.84384096 19.99244408 -17.4219688 20.49635849 -16 21 C-13.597941 21.85986925 -11.20470162 22.73748227 -8.8125 23.625 C-7.80832031 23.98851562 -6.80414063 24.35203125 -5.76953125 24.7265625 C-0.11142652 27.32817342 3.78169716 31.13223119 6 37 C6.9815681 42.54040663 5.87092641 47.15531169 3 52 C-3.86471406 58.86471406 -12.21628575 61.34130747 -21.75146484 61.46875 C-22.63785645 61.4584375 -23.52424805 61.448125 -24.4375 61.4375 C-25.82509521 61.42396484 -25.82509521 61.42396484 -27.24072266 61.41015625 C-36.23038208 61.18140365 -42.58576055 59.76163182 -49.125 53.3125 C-51.9683276 49.67898397 -52.99635664 46.79495069 -52.63671875 42.18359375 C-51.50194885 38.29195955 -49.0137891 35.62340191 -46 33 C-41.82297704 30.91148852 -36.54840084 31.55524112 -32 32 C-28.80000986 33.26205219 -26.57481027 34.85037946 -25 38 C-24.95977609 40.3329866 -24.95679753 42.66706666 -25 45 C-25.66 45 -26.32 45 -27 45 C-27.4640625 43.7934375 -27.4640625 43.7934375 -27.9375 42.5625 C-28.76335345 40.10919595 -28.76335345 40.10919595 -30 39 C-34.2697001 38.47170039 -37.83593889 38.29020664 -41.5625 40.5625 C-43.57214724 43.97016272 -43.54678139 46.10418263 -43 50 C-40.43647594 54.33827149 -37.57771151 56.06537192 -33 58 C-26.00246063 58.90107525 -18.72058946 59.04203559 -12.5546875 55.2578125 C-9.36165616 52.67450574 -7.44215552 50.10550249 -6.58984375 46.046875 C-6.30574908 42.2298081 -6.88191754 40.21507877 -8.75 36.8125 C-13.68107076 31.71614195 -21.24168319 29.84376994 -27.8359375 27.7890625 C-43.94693235 22.76278553 -43.94693235 22.76278553 -48.5625 15.5625 C-49.44098936 10.41706232 -48.72845782 7.08228018 -45.8125 2.75 C-33.0174614 -9.76070441 -14.98522039 -5.44917105 0 0 Z " fill="#A25183" transform="translate(318,206)"/>
<path d="M0 0 C1.13905328 3.55438864 0.96064405 6.69561619 0.796875 10.40234375 C0.74486364 18.13103186 2.58939073 24.3688464 5.25 31.5625 C6.04836782 33.81327312 6.84524733 36.06457473 7.640625 38.31640625 C8.03241943 39.42016602 8.42421387 40.52392578 8.82788086 41.66113281 C11.95498895 50.56892916 14.70335559 58.60679593 14.4375 68.125 C14.42283691 68.98681885 14.40817383 69.8486377 14.39306641 70.73657227 C14.04659448 82.43165477 10.12462387 91.56832229 5 102 C4.34 101.67 3.68 101.34 3 101 C3.495 99.80375 3.99 98.6075 4.5 97.375 C8.41924709 85.23858751 5.55390581 75.09089783 0.77832031 63.86572266 C-0.37048777 61.11189851 -1.37229902 58.30972684 -2.375 55.5 C-2.85066406 54.18515625 -2.85066406 54.18515625 -3.3359375 52.84375 C-3.66464844 51.93109375 -3.66464844 51.93109375 -4 51 C-3.27797337 57.78705031 -1.3604311 63.79994118 1.30859375 70.078125 C4.34319636 77.33366211 5.70936285 83.13395418 5 91 C4.67 91 4.34 91 4 91 C3.82984375 90.29875 3.6596875 89.5975 3.484375 88.875 C0.92666468 78.86183618 -2.87322858 72.07688647 -9.03125 63.81640625 C-16.07649107 53.73779749 -18.45053073 44.44841118 -16.57421875 32.2265625 C-13.74225311 20.37747925 -6.62687531 10.0510966 0 0 Z " fill="#F8BAB6" transform="translate(98,170)"/>
<path d="M0 0 C2 3 2 3 3.625 6.625 C7.51708211 14.45225001 13.74599111 20.0222472 20.63671875 25.19921875 C31.92024574 33.79707981 39.57416116 42.69377093 42 57 C42.199188 60.05421601 42.15072778 62.93520189 42 66 C40.99181283 63.99712816 39.99779133 61.99518694 39.0625 59.95703125 C34.28117003 50.30647921 25.60727765 44.13088212 17 38 C20.7406725 43.15954828 25.11738223 46.40416077 30.37890625 49.97265625 C33.08663854 52.06701252 34.97647642 54.25276916 37 57 C36.505 57.99 36.505 57.99 36 59 C35.20722656 58.278125 34.41445312 57.55625 33.59765625 56.8125 C28.8861608 52.88510138 23.37095422 50.44527383 17.90039062 47.75 C8.53785144 43.00572045 3.49986922 37.00703348 0 27 C-0.65069298 22.20865501 -0.57923605 17.5731129 -0.375 12.75 C-0.34792969 11.51636719 -0.32085937 10.28273437 -0.29296875 9.01171875 C-0.22306602 6.00590116 -0.12500405 3.00394346 0 0 Z " fill="#F8BAB7" transform="translate(55,201)"/>
<path d="M0 0 C4.58667884 2.28345434 7.20709409 5.61411035 8.875 10.33984375 C9.51846506 15.57948782 8.75518993 18.92355252 5.875 23.33984375 C1.90932492 27.35969472 -1.68703896 29.46340798 -7.375 29.65234375 C-12.16629672 29.57443649 -15.50069516 28.51345783 -19.125 25.33984375 C-22.76322642 21.18494613 -23.7863511 16.93982525 -23.5078125 11.48046875 C-22.66426622 6.76349569 -19.96219266 4.11577841 -16.5625 0.96484375 C-11.19547729 -1.57229426 -5.69869882 -1.77036783 0 0 Z " fill="#FDFBFC" transform="translate(360.125,232.66015625)"/>
<path d="M0 0 C0.67804687 0.2165625 1.35609375 0.433125 2.0546875 0.65625 C10.30622914 3.12485525 17.30870997 3.43267375 25.8125 2.5 C40.20389758 0.98630512 49.85065214 2.21019101 61.28515625 11.4140625 C63 13 63 13 64 15 C63.29875 14.71125 62.5975 14.4225 61.875 14.125 C60.92625 13.75375 59.9775 13.3825 59 13 C58.113125 12.62875 57.22625 12.2575 56.3125 11.875 C50.09244777 10.23196734 44.25925495 10.74814901 38 12 C43.61 12 49.22 12 55 12 C55 12.33 55 12.66 55 13 C54.09378906 13.25394531 53.18757813 13.50789063 52.25390625 13.76953125 C51.03574219 14.11371094 49.81757812 14.45789063 48.5625 14.8125 C47.92086914 14.99192139 47.27923828 15.17134277 46.61816406 15.35620117 C43.08679499 16.35622311 39.66827882 17.48214284 36.25 18.8125 C29.88550858 20.94578323 23.70404033 20.10978151 17.6875 17.25 C10.87406298 13.13252727 5.33358598 6.83644339 0 1 C0 0.67 0 0.34 0 0 Z " fill="#FABBB7" transform="translate(28,252)"/>
<path d="M0 0 C1.18319824 0.00008057 2.36639648 0.00016113 3.58544922 0.00024414 C16.31878622 0.08057798 29.07047116 0.86168232 41.71110535 2.44020081 C47.05424274 3.09153285 52.28038181 3.32155334 57.66015625 3.28515625 C58.87293495 3.28303383 58.87293495 3.28303383 60.11021423 3.28086853 C62.65684942 3.27533414 65.20339203 3.2627946 67.75 3.25 C69.49153518 3.2449765 71.23307175 3.24041509 72.97460938 3.23632812 C77.21227448 3.22538634 81.44987163 3.20816826 85.6875 3.1875 C85.6875 4.1775 85.6875 5.1675 85.6875 6.1875 C67.90526142 11.3622118 45.2588943 6.47646643 27.0078125 4.52929688 C20.2406831 3.83268061 13.48682496 3.40591407 6.6875 3.1875 C5.45580078 3.13867676 5.45580078 3.13867676 4.19921875 3.08886719 C-7.77312904 2.65502296 -17.90940975 3.40671508 -29.3125 7.1875 C-30.64206379 7.53556467 -31.97377009 7.87654806 -33.3125 8.1875 C-30.39523564 4.86620137 -28.22140188 3.53797623 -23.9375 2.5 C-22.56464844 2.15388672 -22.56464844 2.15388672 -21.1640625 1.80078125 C-14.02716843 0.2658602 -7.27955377 -0.00463272 0 0 Z " fill="#DFAF66" transform="translate(104.3125,286.8125)"/>
<path d="M0 0 C1.25667929 3.62761785 0.75342479 6.30756315 0.00390625 10.03125 C-0.22530518 11.22596924 -0.4545166 12.42068848 -0.69067383 13.65161133 C-0.93712646 14.92157959 -1.1835791 16.19154785 -1.4375 17.5 C-3.6596795 29.49947013 -4.63769546 40.82710219 -4 53 C-7.3 53 -10.6 53 -14 53 C-13.5875 51.824375 -13.175 50.64875 -12.75 49.4375 C-8.66103683 36.95944338 -6.17272273 24.75982265 -4.48266602 11.74829102 C-4.33240967 10.66088623 -4.18215332 9.57348145 -4.02734375 8.453125 C-3.90093506 7.47504883 -3.77452637 6.49697266 -3.64428711 5.48925781 C-2.94156942 2.77424849 -2.15326906 1.7384325 0 0 Z " fill="#A45686" transform="translate(133,213)"/>
<path d="M0 0 C3.3 0 6.6 0 10 0 C8.48803013 3.02393974 6.91158858 5.93595353 5.25 8.875 C-2.03483649 22.26572602 -6.90639067 36.67641258 -12 51 C-12.99 51 -13.98 51 -15 51 C-13.41644218 45.36499156 -11.61825098 39.84674129 -9.58984375 34.35546875 C-9.15736328 33.18306641 -8.72488281 32.01066406 -8.27929688 30.80273438 C-7.38811143 28.4015928 -6.48972022 26.00311279 -5.58398438 23.60742188 C-2.71495738 15.78085347 -0.93248556 8.28540594 0 0 Z " fill="#A35384" transform="translate(256,203)"/>
<path d="M0 0 C1.20245361 -0.00064453 2.40490723 -0.00128906 3.64379883 -0.00195312 C12.27591593 0.04925188 20.57523831 0.5952499 29.0625 2.1875 C29.0625 2.5175 29.0625 2.8475 29.0625 3.1875 C27.80816162 3.16655273 26.55382324 3.14560547 25.26147461 3.12402344 C20.53698478 3.05075382 15.81254339 3.00538905 11.08764648 2.96777344 C9.05598461 2.94785361 7.02437856 2.92070762 4.99291992 2.88574219 C-7.40036571 2.67801642 -18.13844259 3.21862562 -29.9375 7.1875 C-31.26692704 7.53608664 -32.5986266 7.87716645 -33.9375 8.1875 C-31.02023564 4.86620137 -28.84640188 3.53797623 -24.5625 2.5 C-23.18964844 2.15388672 -23.18964844 2.15388672 -21.7890625 1.80078125 C-14.45034109 0.22245349 -7.48644043 -0.00409851 0 0 Z " fill="#DDA859" transform="translate(104.9375,286.8125)"/>
<path d="M0 0 C11.10345349 -0.78071157 19.66762641 1.24277324 30 5 C30 8.3 30 11.6 30 15 C26.69078724 13.89692908 26.28976371 13.31045272 24.3125 10.625 C19.74788118 5.09762038 13.93002381 3.86625298 7 3 C7 2.67 7 2.34 7 2 C4.69 1.67 2.38 1.34 0 1 C0 0.67 0 0.34 0 0 Z " fill="#A45586" transform="translate(288,201)"/>
<path d="M0 0 C0.99 0 1.98 0 3 0 C3 1.98 3 3.96 3 6 C4.32 6 5.64 6 7 6 C7 4.02 7 2.04 7 0 C7.99 0 8.98 0 10 0 C10 4.62 10 9.24 10 14 C9.01 14 8.02 14 7 14 C7 12.35 7 10.7 7 9 C5.68 9 4.36 9 3 9 C3 10.65 3 12.3 3 14 C2.01 14 1.02 14 0 14 C0 9.38 0 4.76 0 0 Z " fill="#A85D8B" transform="translate(310,275)"/>
<path d="M0 0 C2 2 4 4 6 6 C6.33 4.02 6.66 2.04 7 0 C7.99 0 8.98 0 10 0 C10 4.62 10 9.24 10 14 C7.69 12.02 5.38 10.04 3 8 C2.67 9.98 2.34 11.96 2 14 C1.34 14 0.68 14 0 14 C0 9.38 0 4.76 0 0 Z " fill="#A45485" transform="translate(424,275)"/>
<path d="M0 0 C2.64 0 5.28 0 8 0 C8 0.99 8 1.98 8 3 C6.35 3 4.7 3 3 3 C3 3.99 3 4.98 3 6 C4.32 6 5.64 6 7 6 C7 6.99 7 7.98 7 9 C6.01 9 5.02 9 4 9 C4 9.66 4 10.32 4 11 C5.32 11 6.64 11 8 11 C8 11.99 8 12.98 8 14 C5.36 14 2.72 14 0 14 C0 9.38 0 4.76 0 0 Z " fill="#B06C96" transform="translate(269,275)"/>
<path d="M0 0 C3.89310588 3.89310588 5.12189192 9.90835856 7 15 C7.48992535 16.27771229 7.98081111 17.55505674 8.47265625 18.83203125 C8.93542969 20.06308594 9.39820312 21.29414063 9.875 22.5625 C10.52082031 24.26599609 10.52082031 24.26599609 11.1796875 26.00390625 C11.98298631 28.93785953 12.10044172 30.2217243 11 33 C11 32.34 11 31.68 11 31 C10.34 31 9.68 31 9 31 C0.79502519 10.01731738 0.79502519 10.01731738 0 0 Z " fill="#FEF6F5" transform="translate(93,219)"/>
<path d="M0 0 C3.40198926 4.04998722 6 8.63626649 6 14 C2.37 14 -1.26 14 -5 14 C-4.23539233 10.17696167 -3.52385218 7.61606762 -1.9375 4.1875 C-1.39416016 3.00220703 -1.39416016 3.00220703 -0.83984375 1.79296875 C-0.56269531 1.20128906 -0.28554688 0.60960937 0 0 Z " fill="#AC6390" transform="translate(258,275)"/>
<path d="M0 0 C0.66 0.66 1.32 1.32 2 2 C1.61848805 6.26217421 0.39838469 10.05230098 -1.06640625 14.0546875 C-1.46923828 15.16328125 -1.87207031 16.271875 -2.28710938 17.4140625 C-2.70798828 18.55617187 -3.12886719 19.69828125 -3.5625 20.875 C-4.19961914 22.62296875 -4.19961914 22.62296875 -4.84960938 24.40625 C-5.8951089 27.27256331 -6.94537388 30.13703486 -8 33 C-8.99 33 -9.98 33 -11 33 C-8.84297423 25.5367943 -6.39016484 18.20246678 -3.8125 10.875 C-3.44447266 9.823125 -3.07644531 8.77125 -2.69726562 7.6875 C-1.80014644 5.12430234 -0.90102729 2.5618259 0 0 Z " fill="#A95E8D" transform="translate(252,221)"/>
<path d="M0 0 C1.34985763 3.7910895 0.70636529 6.82801741 0.00390625 10.734375 C-0.22490234 12.02988281 -0.45371094 13.32539063 -0.68945312 14.66015625 C-0.93862403 16.02347005 -1.18797528 17.38675091 -1.4375 18.75 C-1.68369766 20.12877166 -1.92914884 21.50767683 -2.17382812 22.88671875 C-2.77521453 26.25919938 -3.38421558 29.63012372 -4 33 C-4.99 32.34 -5.98 31.68 -7 31 C-6.501514 27.06504521 -5.98636951 23.13266673 -5.45581055 19.2019043 C-5.27773237 17.86494068 -5.1041867 16.52736509 -4.93530273 15.18920898 C-4.6915121 13.2639064 -4.42995913 11.34087929 -4.16796875 9.41796875 C-4.01610107 8.26063232 -3.8642334 7.1032959 -3.70776367 5.91088867 C-2.98289376 2.9296455 -2.39074756 1.84101878 0 0 Z " fill="#A95E8D" transform="translate(133,213)"/>
<path d="M0 0 C2.31 0 4.62 0 7 0 C7 0.99 7 1.98 7 3 C5.68 3 4.36 3 3 3 C3 3.99 3 4.98 3 6 C3.99 6 4.98 6 6 6 C6 6.99 6 7.98 6 9 C5.01 9 4.02 9 3 9 C3 9.66 3 10.32 3 11 C4.32 11 5.64 11 7 11 C7 11.99 7 12.98 7 14 C4.69 14 2.38 14 0 14 C0 9.38 0 4.76 0 0 Z " fill="#A45485" transform="translate(326,275)"/>
<path d="M0 0 C0 0.99 0 1.98 0 3 C-1.98 3.66 -3.96 4.32 -6 5 C-5.67 6.65 -5.34 8.3 -5 10 C-3.35 10.33 -1.7 10.66 0 11 C0 11.99 0 12.98 0 14 C-3.53677664 14.32152515 -5.3962104 14.4131192 -8.375 12.375 C-10.48706506 9.28813568 -10.61195145 7.6717087 -10 4 C-7.16463433 -0.14399597 -4.86205069 -0.44200461 0 0 Z " fill="#A75B8A" transform="translate(459,275)"/>
<path d="M0 0 C0.33 0.66 0.66 1.32 1 2 C1.66 2 2.32 2 3 2 C1.10377974 10.69100952 -0.95268433 19.34363131 -3 28 C-3.99 27.67 -4.98 27.34 -6 27 C-4.52814886 17.85902974 -2.31460464 8.95504804 0 0 Z " fill="#AB6390" transform="translate(171,211)"/>
<path d="M0 0 C0 0.99 0 1.98 0 3 C-1.98 3.66 -3.96 4.32 -6 5 C-5.67 6.65 -5.34 8.3 -5 10 C-3.35 10.33 -1.7 10.66 0 11 C0 11.99 0 12.98 0 14 C-3.53677664 14.32152515 -5.3962104 14.4131192 -8.375 12.375 C-10.48706506 9.28813568 -10.61195145 7.6717087 -10 4 C-7.16463433 -0.14399597 -4.86205069 -0.44200461 0 0 Z " fill="#A45485" transform="translate(396,275)"/>
<path d="M0 0 C0 0.99 0 1.98 0 3 C-1.98 3.66 -3.96 4.32 -6 5 C-5.67 6.65 -5.34 8.3 -5 10 C-3.35 10.33 -1.7 10.66 0 11 C0 11.99 0 12.98 0 14 C-3.53677664 14.32152515 -5.3962104 14.4131192 -8.375 12.375 C-10.48706506 9.28813568 -10.61195145 7.6717087 -10 4 C-7.16463433 -0.14399597 -4.86205069 -0.44200461 0 0 Z " fill="#A45485" transform="translate(371,275)"/>
<path d="M0 0 C1.2065625 0.0309375 1.2065625 0.0309375 2.4375 0.0625 C2.4375 1.0525 2.4375 2.0425 2.4375 3.0625 C1.1175 3.0625 -0.2025 3.0625 -1.5625 3.0625 C-0.7375 3.784375 0.0875 4.50625 0.9375 5.25 C3.4375 8.0625 3.4375 8.0625 3.75 10.875 C3.5953125 11.9578125 3.5953125 11.9578125 3.4375 13.0625 C1.1275 13.3925 -1.1825 13.7225 -3.5625 14.0625 C-3.8925 13.0725 -4.2225 12.0825 -4.5625 11.0625 C-2.9125 11.0625 -1.2625 11.0625 0.4375 11.0625 C-0.408125 10.340625 -1.25375 9.61875 -2.125 8.875 C-4.5625 6.0625 -4.5625 6.0625 -4.4375 3.3125 C-3.17946306 0.07754788 -3.17946306 0.07754788 0 0 Z " fill="#A85C8B" transform="translate(286.5625,274.9375)"/>
<path d="M0 0 C4.02716242 1.69357442 7.14828807 4.44571189 10.4375 7.25 C10.99759766 7.71535156 11.55769531 8.18070313 12.13476562 8.66015625 C17.26884476 13.00944616 21.87738182 17.43918017 24 24 C23.01 24 22.02 24 21 24 C20.6596875 22.9171875 20.6596875 22.9171875 20.3125 21.8125 C17.34904386 15.46223683 10.92945913 11.48757916 5.5234375 7.28125 C3.02009205 5.01816371 1.55870115 2.97094715 0 0 Z " fill="#FEF4F3" transform="translate(71,238)"/>
<path d="M0 0 C4.67217072 0.26943807 9.34273197 0.55483254 14.01220703 0.86767578 C15.67316075 0.97824283 17.33458049 1.08178003 18.99609375 1.18359375 C21.375 1.375 21.375 1.375 25 2 C25.99 3.485 25.99 3.485 27 5 C7.99544419 4.03644647 7.99544419 4.03644647 0 3 C0 2.01 0 1.02 0 0 Z " fill="#E2B674" transform="translate(128,288)"/>
<path d="M0 0 C3.3 0 6.6 0 10 0 C10 0.99 10 1.98 10 3 C8.68 3 7.36 3 6 3 C6 6.63 6 10.26 6 14 C5.01 14 4.02 14 3 14 C3 10.37 3 6.74 3 3 C2.01 3 1.02 3 0 3 C0 2.01 0 1.02 0 0 Z " fill="#A95F8D" transform="translate(338,275)"/>
<path d="M0 0 C3.3 0 6.6 0 10 0 C10 0.99 10 1.98 10 3 C8.68 3 7.36 3 6 3 C6 6.63 6 10.26 6 14 C5.01 14 4.02 14 3 14 C3 10.37 3 6.74 3 3 C2.01 3 1.02 3 0 3 C0 2.01 0 1.02 0 0 Z " fill="#A95F8D" transform="translate(295,275)"/>
<path d="M0 0 C0.99 0 1.98 0 3 0 C3 3.63 3 7.26 3 11 C4.32 11 5.64 11 7 11 C7 11.99 7 12.98 7 14 C4.69 14 2.38 14 0 14 C0 9.38 0 4.76 0 0 Z " fill="#AA608E" transform="translate(402,275)"/>
<path d="M0 0 C0.66 0 1.32 0 2 0 C1.53095554 7.03566689 -0.93531411 14.93531411 -6 20 C-7 17 -7 17 -6.328125 15.2734375 C-5.97234375 14.64695312 -5.6165625 14.02046875 -5.25 13.375 C-2.94309158 9.06556692 -1.42535772 4.66480708 0 0 Z " fill="#AA618E" transform="translate(235,269)"/>
<path d="M0 0 C0.99 0 1.98 0 3 0 C3 4.62 3 9.24 3 14 C2.01 14 1.02 14 0 14 C0 9.38 0 4.76 0 0 Z " fill="#AD6692" transform="translate(353,275)"/>
<path d="M0 0 C0.66 0.66 1.32 1.32 2 2 C1.61758697 7.22631136 -0.26599547 12.09244 -2 17 C-2.99 17 -3.98 17 -5 17 C-1.92482916 5.47835991 -1.92482916 5.47835991 0 0 Z " fill="#AD6692" transform="translate(252,221)"/>
<path d="M0 0 C0 0.99 0 1.98 0 3 C-2.64 3.66 -5.28 4.32 -8 5 C-8.33 6.65 -8.66 8.3 -9 10 C-9.33 10 -9.66 10 -10 10 C-10.32152515 6.46322336 -10.4131192 4.6037896 -8.375 1.625 C-5.3962104 -0.4131192 -3.53677664 -0.32152515 0 0 Z " fill="#AE6893" transform="translate(396,275)"/>
<path d="M0 0 C0 0.99 0 1.98 0 3 C-2.64 3.66 -5.28 4.32 -8 5 C-8.33 6.65 -8.66 8.3 -9 10 C-9.33 10 -9.66 10 -10 10 C-10.32152515 6.46322336 -10.4131192 4.6037896 -8.375 1.625 C-5.3962104 -0.4131192 -3.53677664 -0.32152515 0 0 Z " fill="#AE6893" transform="translate(371,275)"/>
<path d="M0 0 C2.29160319 -0.02692484 4.58329546 -0.04636124 6.875 -0.0625 C8.15117187 -0.07410156 9.42734375 -0.08570313 10.7421875 -0.09765625 C14 0 14 0 16 1 C16 1.99 16 2.98 16 4 C13.03 3.67 10.06 3.34 7 3 C7 2.67 7 2.34 7 2 C4.69 1.67 2.38 1.34 0 1 C0 0.67 0 0.34 0 0 Z " fill="#BA7EA3" transform="translate(288,201)"/>
<path d="M0 0 C0 0.99 0 1.98 0 3 C-4.95 4.485 -4.95 4.485 -10 6 C-8.44756363 -0.20974547 -5.83934857 -0.2595266 0 0 Z " fill="#AD6692" transform="translate(459,275)"/>
<path d="M0 0 C-0.33 0.99 -0.66 1.98 -1 3 C-5.455 3.495 -5.455 3.495 -10 4 C-10 3.01 -10 2.02 -10 1 C-6.59437148 0.22157062 -3.49234244 -0.09978121 0 0 Z " fill="#FAF2E7" transform="translate(93,285)"/>
<path d="M0 0 C1.65 0 3.3 0 5 0 C5 0.99 5 1.98 5 3 C4.01 3 3.02 3 2 3 C2 3.66 2 4.32 2 5 C3.32 5.33 4.64 5.66 6 6 C4.02 6 2.04 6 0 6 C0 4.02 0 2.04 0 0 Z " fill="#AA608E" transform="translate(327,281)"/>
<path d="M0 0 C0.80308594 -0.02578125 1.60617188 -0.0515625 2.43359375 -0.078125 C3.48740234 0.08429688 3.48740234 0.08429688 4.5625 0.25 C5.2225 1.24 5.8825 2.23 6.5625 3.25 C-2.00892857 3.53571429 -2.00892857 3.53571429 -5.4375 1.25 C-3.84882134 -0.33867866 -2.19060484 0.04205961 0 0 Z " fill="#E0B069" transform="translate(148.4375,289.75)"/>
<path d="M0 0 C0.33 0 0.66 0 1 0 C0.88601335 1.62580966 0.75844341 3.25067157 0.625 4.875 C0.52058594 6.23238281 0.52058594 6.23238281 0.4140625 7.6171875 C0 10 0 10 -2 12 C-3.4323356 9.1353288 -2.57861549 7.08594927 -2 4 C-2 3.34 -2 2.68 -2 2 C-1.34 2 -0.68 2 0 2 C0 1.34 0 0.68 0 0 Z " fill="#DDC1D2" transform="translate(395,252)"/>
<path d="M0 0 C2.95183101 2.95183101 3.08663988 5.95511947 4 10 C3.01 9.67 2.02 9.34 1 9 C0.67 6.03 0.34 3.06 0 0 Z " fill="#FCE9E7" transform="translate(93,219)"/>
<path d="M0 0 C0 0.99 0 1.98 0 3 C-2.64 3 -5.28 3 -8 3 C-7 1 -7 1 -5.125 0.375 C-3 0 -3 0 0 0 Z " fill="#DDA85A" transform="translate(190,290)"/>
<path d="M0 0 C0.33 0.66 0.66 1.32 1 2 C1.66 2 2.32 2 3 2 C2.67 3.65 2.34 5.3 2 7 C1.01 7.33 0.02 7.66 -1 8 C-0.67 5.36 -0.34 2.72 0 0 Z " fill="#B16E97" transform="translate(171,211)"/>
<path d="M0 0 C1 3 1 3 -0.4375 6.1875 C-1.2109375 7.5796875 -1.2109375 7.5796875 -2 9 C-2.66 8.67 -3.32 8.34 -4 8 C-1.125 1.125 -1.125 1.125 0 0 Z " fill="#F9C9C6" transform="translate(105,263)"/>
<path d="M0 0 C0.93065133 2.60582371 1.14917407 3.64198224 0.0625 6.25 C-0.4634375 7.11625 -0.4634375 7.11625 -1 8 C-1.66 7.67 -2.32 7.34 -3 7 C-3 3 -3 3 -1.5 1.25 C-1.005 0.8375 -0.51 0.425 0 0 Z " fill="#B97BA1" transform="translate(133,213)"/>
</svg>
